<svg width="90" height="90" viewBox="0 0 90 90" fill="none" xmlns="http://www.w3.org/2000/svg">
<circle cx="45" cy="45" r="45" fill="#C4C4C4"/>
<path fill-rule="evenodd" clip-rule="evenodd" d="M12 45.5C12 36.6152 15.5295 28.0944 21.8119 21.8119C28.0944 15.5295 36.6152 12 45.5 12C54.3848 12 62.9056 15.5295 69.1881 21.8119C75.4705 28.0944 79 36.6152 79 45.5C79 54.3848 75.4705 62.9056 69.1881 69.1881C62.9056 75.4705 54.3848 79 45.5 79C36.6152 79 28.0944 75.4705 21.8119 69.1881C15.5295 62.9056 12 54.3848 12 45.5ZM45.5 16.8052C39.9382 16.8054 34.4962 18.422 29.8363 21.4582C25.1763 24.4945 21.4992 28.8195 19.2522 33.9073C17.0052 38.995 16.2852 44.6261 17.1799 50.1156C18.0745 55.605 20.5451 60.7161 24.2913 64.8271C26.5655 61.2649 29.701 58.3334 33.408 56.3036C37.1149 54.2737 41.2737 53.211 45.5 53.2136C54.4124 53.2136 62.2424 57.8469 66.7087 64.8271C70.4549 60.7161 72.9255 55.605 73.8202 50.1156C74.7148 44.6261 73.9948 38.995 71.7478 33.9073C69.5008 28.8195 65.8237 24.4945 61.1637 21.4582C56.5038 18.422 51.0618 16.8054 45.5 16.8052ZM63.1124 68.1554C61.3225 65.0705 58.7532 62.5103 55.6621 60.7312C52.571 58.9522 49.0665 58.0168 45.5 58.0189C41.9335 58.0168 38.429 58.9522 35.3379 60.7312C32.2468 62.5103 29.6775 65.0705 27.8876 68.1554C32.9192 72.0788 39.1195 74.2049 45.5 74.1948C52.1363 74.1948 58.2465 71.9389 63.1124 68.1554ZM33.6134 40.4672C33.6134 37.3146 34.8657 34.2912 37.0949 32.0621C39.3241 29.8329 42.3475 28.5806 45.5 28.5806C48.6525 28.5806 51.6759 29.8329 53.9051 32.0621C56.1343 34.2912 57.3866 37.3146 57.3866 40.4672C57.3866 43.6197 56.1343 46.6431 53.9051 48.8723C51.6759 51.1014 48.6525 52.3538 45.5 52.3538C42.3475 52.3538 39.3241 51.1014 37.0949 48.8723C34.8657 46.6431 33.6134 43.6197 33.6134 40.4672ZM45.5 33.3858C44.5701 33.3858 43.6492 33.5689 42.7901 33.9248C41.9309 34.2807 41.1503 34.8023 40.4927 35.4599C39.8351 36.1174 39.3135 36.8981 38.9577 37.7572C38.6018 38.6164 38.4186 39.5372 38.4186 40.4672C38.4186 41.3971 38.6018 42.3179 38.9577 43.1771C39.3135 44.0362 39.8351 44.8169 40.4927 45.4745C41.1503 46.132 41.9309 46.6536 42.7901 47.0095C43.6492 47.3654 44.5701 47.5485 45.5 47.5485C47.3781 47.5485 49.1793 46.8025 50.5073 45.4745C51.8353 44.1464 52.5814 42.3453 52.5814 40.4672C52.5814 38.5891 51.8353 36.7879 50.5073 35.4599C49.1793 34.1318 47.3781 33.3858 45.5 33.3858Z" fill="white"/>
</svg>
