<svg width="13" height="13" viewBox="0 0 13 13" fill="none" xmlns="http://www.w3.org/2000/svg">
<path d="M0.69401 9.432C0.637107 9.4889 0.598901 9.56126 0.582643 9.6393L0.00792775 12.5139C-0.0188977 12.6472 0.0233728 12.7846 0.119294 12.8813C0.196519 12.9585 0.300569 13 0.407058 13C0.433071 13 0.459896 12.9976 0.486722 12.9919L3.3603 12.4171C3.43996 12.4009 3.51231 12.3627 3.5684 12.3057L10 5.87375L7.12643 3L0.69401 9.432Z" fill="#384255"/>
<path d="M12.3523 0.647095C11.4896 -0.215698 10.0864 -0.215698 9.22456 0.647095L8 1.87182L11.1278 5L12.3523 3.77528C12.77 3.35848 13 2.80275 13 2.21163C13 1.6205 12.77 1.06478 12.3523 0.647095Z" fill="#384255"/>
</svg>
